# xmcd
#
# Track frame offsets: 
#        150
#        24171
#        46368
#        64641
#        77485
#        94812
#        117019
#        129665
#        158204
#        184527
#        216111
#
# Disc length: 3191 seconds
#
# Revision: 0
# Processed by: cddbd v1.5.2PL0 Copyright (c) Steve Scherf et al.
# Submitted via: ExactAudioCopy v1.0b4
#
DISCID=840c750b
DTITLE=Glen Delpit and The Subterraneans - Sleepin' Late On Judgement Da
DTITLE=y
DYEAR=2009
DGENRE=Blues Rock
TTITLE0=Town To Town
TTITLE1=High Water Everywhere
TTITLE2=Like A Freight Train
TTITLE3=One Foot In Front
TTITLE4=Come See Me
TTITLE5=She's Been Driftin
TTITLE6=Just Can't Stay
TTITLE7=New Pony
TTITLE8=My Name Ain't Ulysses
TTITLE9=Let It Roll
TTITLE10=Standing In The Door
EXTD=
EXTT0=
EXTT1=
EXTT2=
EXTT3=
EXTT4=
EXTT5=
EXTT6=
EXTT7=
EXTT8=
EXTT9=
EXTT10=
PLAYORDER=
